<mxfile host="c1942bed-f918-41f4-ae11-c7e9d541fb37" modified="2020-08-26T13:13:43.911Z" agent="5.0 (Macintosh; Intel Mac OS X 10_15_3) AppleWebKit/537.36 (KHTML, like Gecko) Code/1.48.1 Chrome/78.0.3904.130 Electron/7.3.2 Safari/537.36" etag="CDfcjktSgQsbBFC-ZVcB" version="13.1.3">
    <diagram id="6hGFLwfOUW9BJ-s0fimq" name="Page-1">
        <mxGraphModel dx="927" dy="635" grid="0" gridSize="10" guides="1" tooltips="1" connect="1" arrows="1" fold="1" page="0" pageScale="1" pageWidth="827" pageHeight="1169" math="0" shadow="0">
            <root>
                <mxCell id="0"/>
                <mxCell id="1" parent="0"/>
                <mxCell id="2" value="" style="outlineConnect=0;fontColor=#232F3E;gradientColor=#945DF2;gradientDirection=north;fillColor=#5A30B5;strokeColor=#ffffff;dashed=0;verticalLabelPosition=bottom;verticalAlign=top;align=center;html=1;fontSize=12;fontStyle=1;aspect=fixed;shape=mxgraph.aws4.resourceIcon;resIcon=mxgraph.aws4.route_53;" parent="1" vertex="1">
                    <mxGeometry x="581" y="10" width="78" height="78" as="geometry"/>
                </mxCell>
                <mxCell id="6" value="jmlee-vpc1&amp;nbsp;&lt;span style=&quot;color: rgb(0 , 0 , 0) ; font-family: &amp;#34;arial&amp;#34; ; font-size: 14px ; background-color: rgb(234 , 243 , 254)&quot;&gt;172.16.0.0/16&lt;/span&gt;" style="points=[[0,0],[0.25,0],[0.5,0],[0.75,0],[1,0],[1,0.25],[1,0.5],[1,0.75],[1,1],[0.75,1],[0.5,1],[0.25,1],[0,1],[0,0.75],[0,0.5],[0,0.25]];outlineConnect=0;gradientColor=none;html=1;whiteSpace=wrap;fontSize=12;fontStyle=0;shape=mxgraph.aws4.group;grIcon=mxgraph.aws4.group_vpc;strokeColor=#248814;fillColor=none;verticalAlign=top;align=left;spacingLeft=30;fontColor=#AAB7B8;dashed=0;" parent="1" vertex="1">
                    <mxGeometry x="40" y="320" width="360" height="360" as="geometry"/>
                </mxCell>
                <mxCell id="7" value="jmlee-vpc1-subnet1&amp;nbsp;172.16.0.0/20" style="points=[[0,0],[0.25,0],[0.5,0],[0.75,0],[1,0],[1,0.25],[1,0.5],[1,0.75],[1,1],[0.75,1],[0.5,1],[0.25,1],[0,1],[0,0.75],[0,0.5],[0,0.25]];outlineConnect=0;gradientColor=none;html=1;whiteSpace=wrap;fontSize=12;fontStyle=0;shape=mxgraph.aws4.group;grIcon=mxgraph.aws4.group_security_group;grStroke=0;strokeColor=#248814;fillColor=#E9F3E6;verticalAlign=top;align=left;spacingLeft=30;fontColor=#248814;dashed=0;" parent="1" vertex="1">
                    <mxGeometry x="80" y="360" width="280" height="280" as="geometry"/>
                </mxCell>
                <mxCell id="8" value="jmlee-vpc1-subnet1-ecs1" style="outlineConnect=0;fontColor=#232F3E;gradientColor=#F78E04;gradientDirection=north;fillColor=#D05C17;strokeColor=#ffffff;dashed=0;verticalLabelPosition=bottom;verticalAlign=top;align=center;html=1;fontSize=12;fontStyle=0;aspect=fixed;shape=mxgraph.aws4.resourceIcon;resIcon=mxgraph.aws4.ecs;" parent="1" vertex="1">
                    <mxGeometry x="181" y="530" width="78" height="78" as="geometry"/>
                </mxCell>
                <mxCell id="11" value="" style="edgeStyle=orthogonalEdgeStyle;html=1;endArrow=openThin;elbow=vertical;startArrow=none;endFill=0;strokeColor=#B266FF;rounded=0;strokeWidth=3;" parent="1" source="9" target="10" edge="1">
                    <mxGeometry width="100" relative="1" as="geometry">
                        <mxPoint x="350" y="260" as="sourcePoint"/>
                        <mxPoint x="450" y="260" as="targetPoint"/>
                    </mxGeometry>
                </mxCell>
                <mxCell id="12" value="" style="edgeStyle=orthogonalEdgeStyle;html=1;endArrow=openThin;elbow=vertical;startArrow=none;endFill=0;strokeColor=#B266FF;rounded=0;strokeWidth=3;" parent="1" source="8" target="9" edge="1">
                    <mxGeometry width="100" relative="1" as="geometry">
                        <mxPoint x="520" y="472" as="sourcePoint"/>
                        <mxPoint x="520" y="340" as="targetPoint"/>
                    </mxGeometry>
                </mxCell>
                <mxCell id="13" value="jmlee-vpc2&amp;nbsp;192.168.0.0/16" style="points=[[0,0],[0.25,0],[0.5,0],[0.75,0],[1,0],[1,0.25],[1,0.5],[1,0.75],[1,1],[0.75,1],[0.5,1],[0.25,1],[0,1],[0,0.75],[0,0.5],[0,0.25]];outlineConnect=0;gradientColor=none;html=1;whiteSpace=wrap;fontSize=12;fontStyle=0;shape=mxgraph.aws4.group;grIcon=mxgraph.aws4.group_vpc;strokeColor=#248814;fillColor=none;verticalAlign=top;align=left;spacingLeft=30;fontColor=#AAB7B8;dashed=0;" parent="1" vertex="1">
                    <mxGeometry x="440" y="320" width="760" height="360" as="geometry"/>
                </mxCell>
                <mxCell id="14" value="jmlee-vpc2-subnet1&amp;nbsp;&lt;span id=&quot;CidrBlock&quot; class=&quot;&quot; style=&quot;color: rgb(68 , 68 , 68) ; font-family: &amp;#34;helvetica neue&amp;#34; , &amp;#34;roboto&amp;#34; , &amp;#34;arial&amp;#34; , sans-serif ; font-size: 13px ; background-color: rgb(255 , 255 , 255)&quot;&gt;192.168.0.0/20&lt;/span&gt;&lt;span id=&quot;&quot; class=&quot;awsui-icon awsui-icon-small files-o GD0KV33CC &quot; style=&quot;color: rgb(68 , 68 , 68) ; font-family: &amp;#34;helvetica neue&amp;#34; , &amp;#34;roboto&amp;#34; , &amp;#34;arial&amp;#34; , sans-serif ; font-size: 13px ; background-color: rgb(255 , 255 , 255) ; cursor: pointer ; margin-left: 10px ; padding-top: 2px ; vertical-align: text-top ; height: 17px ; display: inline-block&quot;&gt;&lt;/span&gt;" style="points=[[0,0],[0.25,0],[0.5,0],[0.75,0],[1,0],[1,0.25],[1,0.5],[1,0.75],[1,1],[0.75,1],[0.5,1],[0.25,1],[0,1],[0,0.75],[0,0.5],[0,0.25]];outlineConnect=0;gradientColor=none;html=1;whiteSpace=wrap;fontSize=12;fontStyle=0;shape=mxgraph.aws4.group;grIcon=mxgraph.aws4.group_security_group;grStroke=0;strokeColor=#248814;fillColor=#E9F3E6;verticalAlign=top;align=left;spacingLeft=30;fontColor=#248814;dashed=0;" parent="1" vertex="1">
                    <mxGeometry x="480" y="360" width="280" height="280" as="geometry"/>
                </mxCell>
                <mxCell id="15" value="jmlee-vpc2-subnet1-ecs1" style="outlineConnect=0;fontColor=#232F3E;gradientColor=#F78E04;gradientDirection=north;fillColor=#D05C17;strokeColor=#ffffff;dashed=0;verticalLabelPosition=bottom;verticalAlign=top;align=center;html=1;fontSize=12;fontStyle=0;aspect=fixed;shape=mxgraph.aws4.resourceIcon;resIcon=mxgraph.aws4.ecs;" parent="1" vertex="1">
                    <mxGeometry x="581" y="530" width="78" height="78" as="geometry"/>
                </mxCell>
                <mxCell id="18" value="" style="edgeStyle=orthogonalEdgeStyle;html=1;endArrow=openThin;elbow=vertical;startArrow=none;endFill=0;strokeColor=#B266FF;rounded=0;strokeWidth=3;" parent="1" source="16" target="17" edge="1">
                    <mxGeometry width="100" relative="1" as="geometry">
                        <mxPoint x="750" y="260" as="sourcePoint"/>
                        <mxPoint x="850" y="260" as="targetPoint"/>
                    </mxGeometry>
                </mxCell>
                <mxCell id="19" value="" style="edgeStyle=orthogonalEdgeStyle;html=1;endArrow=openThin;elbow=vertical;startArrow=none;endFill=0;strokeColor=#B266FF;rounded=0;strokeWidth=3;" parent="1" source="15" target="16" edge="1">
                    <mxGeometry width="100" relative="1" as="geometry">
                        <mxPoint x="920" y="472" as="sourcePoint"/>
                        <mxPoint x="920" y="340" as="targetPoint"/>
                    </mxGeometry>
                </mxCell>
                <mxCell id="26" value="jmlee-vpn2-subnet2&amp;nbsp;&lt;span id=&quot;CidrBlock&quot; class=&quot;&quot; style=&quot;color: rgb(68 , 68 , 68) ; font-family: &amp;#34;helvetica neue&amp;#34; , &amp;#34;roboto&amp;#34; , &amp;#34;arial&amp;#34; , sans-serif ; font-size: 13px ; background-color: rgb(255 , 255 , 255)&quot;&gt;192.168.32.0/20&lt;/span&gt;&lt;span id=&quot;&quot; class=&quot;awsui-icon awsui-icon-small files-o GD0KV33CC &quot; style=&quot;color: rgb(68 , 68 , 68) ; font-family: &amp;#34;helvetica neue&amp;#34; , &amp;#34;roboto&amp;#34; , &amp;#34;arial&amp;#34; , sans-serif ; font-size: 13px ; background-color: rgb(255 , 255 , 255) ; cursor: pointer ; margin-left: 10px ; padding-top: 2px ; vertical-align: text-top ; height: 17px ; display: inline-block&quot;&gt;&lt;/span&gt;" style="points=[[0,0],[0.25,0],[0.5,0],[0.75,0],[1,0],[1,0.25],[1,0.5],[1,0.75],[1,1],[0.75,1],[0.5,1],[0.25,1],[0,1],[0,0.75],[0,0.5],[0,0.25]];outlineConnect=0;gradientColor=none;html=1;whiteSpace=wrap;fontSize=12;fontStyle=0;shape=mxgraph.aws4.group;grIcon=mxgraph.aws4.group_security_group;grStroke=0;strokeColor=#248814;fillColor=#E9F3E6;verticalAlign=top;align=left;spacingLeft=30;fontColor=#248814;dashed=0;" parent="1" vertex="1">
                    <mxGeometry x="800" y="360" width="360" height="280" as="geometry"/>
                </mxCell>
                <mxCell id="27" value="jmlee-vpc2-subnet2-ecs1" style="outlineConnect=0;fontColor=#232F3E;gradientColor=#F78E04;gradientDirection=north;fillColor=#D05C17;strokeColor=#ffffff;dashed=0;verticalLabelPosition=bottom;verticalAlign=top;align=center;html=1;fontSize=12;fontStyle=0;aspect=fixed;shape=mxgraph.aws4.resourceIcon;resIcon=mxgraph.aws4.ecs;" parent="1" vertex="1">
                    <mxGeometry x="901" y="530" width="78" height="78" as="geometry"/>
                </mxCell>
                <mxCell id="30" value="" style="edgeStyle=orthogonalEdgeStyle;html=1;endArrow=openThin;elbow=vertical;startArrow=none;endFill=0;strokeColor=#B266FF;rounded=0;strokeWidth=3;" parent="1" source="28" target="29" edge="1">
                    <mxGeometry width="100" relative="1" as="geometry">
                        <mxPoint x="1070" y="260" as="sourcePoint"/>
                        <mxPoint x="1170" y="260" as="targetPoint"/>
                    </mxGeometry>
                </mxCell>
                <mxCell id="31" value="" style="edgeStyle=orthogonalEdgeStyle;html=1;endArrow=openThin;elbow=vertical;startArrow=none;endFill=0;strokeColor=#B266FF;rounded=0;strokeWidth=3;" parent="1" source="27" target="28" edge="1">
                    <mxGeometry width="100" relative="1" as="geometry">
                        <mxPoint x="1240" y="472" as="sourcePoint"/>
                        <mxPoint x="1240" y="340" as="targetPoint"/>
                    </mxGeometry>
                </mxCell>
                <mxCell id="32" value="jmlee-vpc2-subnet2-ecs2" style="outlineConnect=0;fontColor=#232F3E;gradientColor=#F78E04;gradientDirection=north;fillColor=#D05C17;strokeColor=#ffffff;dashed=0;verticalLabelPosition=bottom;verticalAlign=top;align=center;html=1;fontSize=12;fontStyle=0;aspect=fixed;shape=mxgraph.aws4.resourceIcon;resIcon=mxgraph.aws4.ecs;" parent="1" vertex="1">
                    <mxGeometry x="1040" y="530" width="78" height="78" as="geometry"/>
                </mxCell>
                <mxCell id="35" value="" style="edgeStyle=orthogonalEdgeStyle;html=1;endArrow=openThin;elbow=vertical;startArrow=none;endFill=0;strokeColor=#B266FF;rounded=0;strokeWidth=3;" parent="1" source="33" target="34" edge="1">
                    <mxGeometry width="100" relative="1" as="geometry">
                        <mxPoint x="1209" y="260" as="sourcePoint"/>
                        <mxPoint x="1309" y="260" as="targetPoint"/>
                    </mxGeometry>
                </mxCell>
                <mxCell id="36" value="" style="edgeStyle=orthogonalEdgeStyle;html=1;endArrow=openThin;elbow=vertical;startArrow=none;endFill=0;strokeColor=#B266FF;rounded=0;strokeWidth=3;" parent="1" source="32" target="33" edge="1">
                    <mxGeometry width="100" relative="1" as="geometry">
                        <mxPoint x="1379" y="472" as="sourcePoint"/>
                        <mxPoint x="1379" y="340" as="targetPoint"/>
                    </mxGeometry>
                </mxCell>
                <mxCell id="40" value="vpn1-sub1-cf1" style="html=1;endArrow=openThin;elbow=vertical;startArrow=none;endFill=0;strokeColor=#B266FF;rounded=0;strokeWidth=3;" parent="1" source="2" target="10" edge="1">
                    <mxGeometry width="100" relative="1" as="geometry">
                        <mxPoint x="320" y="302" as="sourcePoint"/>
                        <mxPoint x="320" y="260" as="targetPoint"/>
                    </mxGeometry>
                </mxCell>
                <mxCell id="41" value="vpn1-sub1-alb1" style="html=1;endArrow=openThin;elbow=vertical;startArrow=none;endFill=0;strokeColor=#B266FF;rounded=0;strokeWidth=3;" parent="1" source="2" target="9" edge="1">
                    <mxGeometry width="100" relative="1" as="geometry">
                        <mxPoint x="591" y="77.52499999999998" as="sourcePoint"/>
                        <mxPoint x="269" y="230.4749999999999" as="targetPoint"/>
                    </mxGeometry>
                </mxCell>
                <mxCell id="42" value="vpn2-sub1-cf1" style="html=1;endArrow=openThin;elbow=vertical;startArrow=none;endFill=0;strokeColor=#B266FF;rounded=0;strokeWidth=3;" parent="1" source="2" target="17" edge="1">
                    <mxGeometry width="100" relative="1" as="geometry">
                        <mxPoint x="591" y="97.99999999999989" as="sourcePoint"/>
                        <mxPoint x="269" y="420" as="targetPoint"/>
                    </mxGeometry>
                </mxCell>
                <mxCell id="43" value="vpn2-sub1-alb1" style="html=1;endArrow=openThin;elbow=vertical;startArrow=none;endFill=0;strokeColor=#B266FF;rounded=0;strokeWidth=3;" parent="1" source="2" target="16" edge="1">
                    <mxGeometry width="100" relative="1" as="geometry">
                        <mxPoint x="630.0000000000002" y="97.99999999999989" as="sourcePoint"/>
                        <mxPoint x="630.0000000000002" y="210" as="targetPoint"/>
                        <Array as="points">
                            <mxPoint x="520" y="240"/>
                        </Array>
                    </mxGeometry>
                </mxCell>
                <mxCell id="44" value="vpn2-sub2-cf1" style="html=1;endArrow=openThin;elbow=vertical;startArrow=none;endFill=0;strokeColor=#B266FF;rounded=0;strokeWidth=3;" parent="1" source="2" target="29" edge="1">
                    <mxGeometry width="100" relative="1" as="geometry">
                        <mxPoint x="630.0000000000002" y="97.99999999999989" as="sourcePoint"/>
                        <mxPoint x="630.0000000000002" y="210" as="targetPoint"/>
                        <Array as="points">
                            <mxPoint x="940" y="150"/>
                        </Array>
                    </mxGeometry>
                </mxCell>
                <mxCell id="45" value="vpn2-sub2-cf2" style="html=1;endArrow=openThin;elbow=vertical;startArrow=none;endFill=0;strokeColor=#B266FF;rounded=0;strokeWidth=3;" parent="1" source="2" target="34" edge="1">
                    <mxGeometry width="100" relative="1" as="geometry">
                        <mxPoint x="669" y="82.15625" as="sourcePoint"/>
                        <mxPoint x="911" y="225.84375" as="targetPoint"/>
                        <Array as="points">
                            <mxPoint x="1079" y="120"/>
                        </Array>
                    </mxGeometry>
                </mxCell>
                <mxCell id="46" value="vpn2-sub2-alb1" style="html=1;endArrow=openThin;elbow=vertical;startArrow=none;endFill=0;strokeColor=#B266FF;rounded=0;strokeWidth=3;" parent="1" source="2" target="28" edge="1">
                    <mxGeometry width="100" relative="1" as="geometry">
                        <mxPoint x="669" y="75.14379084967311" as="sourcePoint"/>
                        <mxPoint x="1050" y="232.85620915032666" as="targetPoint"/>
                    </mxGeometry>
                </mxCell>
                <mxCell id="47" value="vpn2-sub2-alb2" style="html=1;endArrow=openThin;elbow=vertical;startArrow=none;endFill=0;strokeColor=#B266FF;rounded=0;strokeWidth=3;" parent="1" source="2" target="33" edge="1">
                    <mxGeometry width="100" relative="1" as="geometry">
                        <mxPoint x="640" y="90" as="sourcePoint"/>
                        <mxPoint x="918.8000000000002" y="420" as="targetPoint"/>
                        <Array as="points">
                            <mxPoint x="1140" y="49"/>
                            <mxPoint x="1140" y="400"/>
                        </Array>
                    </mxGeometry>
                </mxCell>
                <mxCell id="9" value="jmlee-vpc1-subnet1-alb1" style="outlineConnect=0;fontColor=#232F3E;gradientColor=none;fillColor=#5A30B5;strokeColor=none;dashed=0;verticalLabelPosition=bottom;verticalAlign=top;align=center;html=1;fontSize=12;fontStyle=0;aspect=fixed;pointerEvents=1;shape=mxgraph.aws4.application_load_balancer;labelBackgroundColor=#ffffff;" parent="1" vertex="1">
                    <mxGeometry x="181" y="410" width="78" height="78" as="geometry"/>
                </mxCell>
                <mxCell id="16" value="&lt;span style=&quot;background-color: rgb(255 , 255 , 255)&quot;&gt;jmlee-vpc2-subnet1-alb1&lt;/span&gt;" style="outlineConnect=0;fontColor=#232F3E;gradientColor=none;fillColor=#5A30B5;strokeColor=none;dashed=0;verticalLabelPosition=bottom;verticalAlign=top;align=center;html=1;fontSize=12;fontStyle=0;aspect=fixed;pointerEvents=1;shape=mxgraph.aws4.application_load_balancer;" parent="1" vertex="1">
                    <mxGeometry x="581" y="410" width="78" height="78" as="geometry"/>
                </mxCell>
                <mxCell id="28" value="&lt;span style=&quot;background-color: rgb(255 , 255 , 255)&quot;&gt;jmlee-vpc2-subnet2-alb1&lt;/span&gt;" style="outlineConnect=0;fontColor=#232F3E;gradientColor=none;fillColor=#5A30B5;strokeColor=none;dashed=0;verticalLabelPosition=bottom;verticalAlign=top;align=center;html=1;fontSize=12;fontStyle=0;aspect=fixed;pointerEvents=1;shape=mxgraph.aws4.application_load_balancer;" parent="1" vertex="1">
                    <mxGeometry x="901" y="410" width="78" height="78" as="geometry"/>
                </mxCell>
                <mxCell id="33" value="&lt;span style=&quot;background-color: rgb(255 , 255 , 255)&quot;&gt;jmlee-vpc2-subnet2-alb2&lt;/span&gt;" style="outlineConnect=0;fontColor=#232F3E;gradientColor=none;fillColor=#5A30B5;strokeColor=none;dashed=0;verticalLabelPosition=bottom;verticalAlign=top;align=center;html=1;fontSize=12;fontStyle=0;aspect=fixed;pointerEvents=1;shape=mxgraph.aws4.application_load_balancer;" parent="1" vertex="1">
                    <mxGeometry x="1040" y="410" width="78" height="78" as="geometry"/>
                </mxCell>
                <mxCell id="17" value="jmlee-vpc2-subnet1-cf1" style="outlineConnect=0;fontColor=#4D4D4D;gradientColor=#945DF2;gradientDirection=north;fillColor=#5A30B5;strokeColor=#ffffff;dashed=0;verticalLabelPosition=bottom;verticalAlign=top;align=center;html=1;fontSize=12;fontStyle=0;aspect=fixed;shape=mxgraph.aws4.resourceIcon;resIcon=mxgraph.aws4.cloudfront;labelBackgroundColor=#ffffff;" parent="1" vertex="1">
                    <mxGeometry x="581" y="200" width="78" height="78" as="geometry"/>
                </mxCell>
                <mxCell id="29" value="&lt;span style=&quot;color: rgb(77 , 77 , 77) ; background-color: rgb(255 , 255 , 255)&quot;&gt;jmlee-vpc2-subnet2-cf1&lt;/span&gt;" style="outlineConnect=0;fontColor=#232F3E;gradientColor=#945DF2;gradientDirection=north;fillColor=#5A30B5;strokeColor=#ffffff;dashed=0;verticalLabelPosition=bottom;verticalAlign=top;align=center;html=1;fontSize=12;fontStyle=0;aspect=fixed;shape=mxgraph.aws4.resourceIcon;resIcon=mxgraph.aws4.cloudfront;" parent="1" vertex="1">
                    <mxGeometry x="901" y="200" width="78" height="78" as="geometry"/>
                </mxCell>
                <mxCell id="34" value="jmlee-vpc2-subnet2-cf2" style="outlineConnect=0;fontColor=#232F3E;gradientColor=#945DF2;gradientDirection=north;fillColor=#5A30B5;strokeColor=#ffffff;dashed=0;verticalLabelPosition=bottom;verticalAlign=top;align=center;html=1;fontSize=12;fontStyle=0;aspect=fixed;shape=mxgraph.aws4.resourceIcon;resIcon=mxgraph.aws4.cloudfront;labelBackgroundColor=#ffffff;" parent="1" vertex="1">
                    <mxGeometry x="1040" y="200" width="78" height="78" as="geometry"/>
                </mxCell>
                <mxCell id="10" value="&lt;span&gt;jmlee-vpc1-subnet1-cf1&lt;/span&gt;" style="outlineConnect=0;fontColor=#232F3E;gradientColor=#945DF2;gradientDirection=north;fillColor=#5A30B5;strokeColor=#ffffff;dashed=0;verticalLabelPosition=bottom;verticalAlign=top;align=center;html=1;fontSize=12;fontStyle=0;aspect=fixed;shape=mxgraph.aws4.resourceIcon;resIcon=mxgraph.aws4.cloudfront;labelBackgroundColor=#ffffff;" parent="1" vertex="1">
                    <mxGeometry x="181" y="200" width="78" height="78" as="geometry"/>
                </mxCell>
            </root>
        </mxGraphModel>
    </diagram>
</mxfile>